<svg width="78" height="100" viewBox="0 0 78 100" fill="none" xmlns="http://www.w3.org/2000/svg">
<path d="M30.3245 53.4694C29.4792 53.4694 28.7938 54.1547 28.7938 55.0001V57.0216C28.7938 57.8669 29.4792 58.5522 30.3245 58.5522C31.1698 58.5522 31.8552 57.8669 31.8552 57.0216V55.0001C31.8552 54.1547 31.1698 53.4694 30.3245 53.4694Z" fill="#FF9C1D" stroke="#FF9C1D" stroke-width="1.5625"/>
<path d="M48.4751 53.4694C47.6298 53.4694 46.9445 54.1547 46.9445 55.0001V57.0216C46.9445 57.8669 47.6298 58.5522 48.4751 58.5522C49.3204 58.5522 50.0058 57.8669 50.0058 57.0216V55.0001C50.0056 54.1547 49.3202 53.4694 48.4751 53.4694Z" fill="#FF9C1D" stroke="#FF9C1D" stroke-width="1.5625"/>
<path d="M43.997 61.8405C43.3993 61.2425 42.43 61.2427 41.8323 61.8405C41.1825 62.4903 40.3186 62.8482 39.3999 62.8482C38.4811 62.8482 37.6173 62.4903 36.9675 61.8405C36.3698 61.2427 35.4005 61.2427 34.803 61.8405C34.2052 62.4382 34.2052 63.4075 34.803 64.005C36.0307 65.2331 37.6634 65.9093 39.3999 65.9093C41.1364 65.9093 42.7692 65.2329 43.997 64.005C44.5948 63.4073 44.5948 62.438 43.997 61.8405Z" fill="#FF9C1D" stroke="#FF9C1D" stroke-width="1.5625"/>
<path d="M39.3999 82.8576C37.1493 82.8576 35.3182 84.6887 35.3182 86.9393C35.3182 89.1898 37.1493 91.0209 39.3999 91.0209C41.6505 91.0209 43.4815 89.1898 43.4815 86.9393C43.4815 84.6887 41.6505 82.8576 39.3999 82.8576ZM39.3999 87.9596C38.8372 87.9596 38.3796 87.5018 38.3796 86.9393C38.3796 86.3768 38.8374 85.9189 39.3999 85.9189C39.9626 85.9189 40.4202 86.3768 40.4202 86.9393C40.4202 87.5018 39.9626 87.9596 39.3999 87.9596Z" fill="#FF9C1D" stroke="#FF9C1D" stroke-width="1.5625"/>
<path d="M75.6576 92.5511C74.8123 92.5511 74.1269 93.2365 74.1269 94.0818V96.2111C74.1269 96.6123 73.7969 96.9388 73.3914 96.9388H48.0733V85.6669C48.6735 85.8298 49.2517 85.9183 49.7913 85.9183C50.9183 85.9183 51.8786 85.5548 52.5693 84.8669C53.2609 84.1775 53.6267 83.2177 53.6267 82.0912C53.6267 80.9665 53.2501 79.6767 52.5728 78.3583C54.0646 78.28 55.4193 77.6796 56.4589 76.7388H62.5142C68.9175 76.7388 74.1271 81.9283 74.1271 88.3068C74.1271 89.1521 74.8125 89.8375 75.6578 89.8375C76.5031 89.8375 77.1885 89.1521 77.1885 88.3068C77.1885 80.2402 70.6058 73.6777 62.5144 73.6777H58.3238C58.4562 73.1716 58.5281 72.6411 58.5281 72.0943C58.5281 70.2421 57.7165 68.5775 56.4324 67.4286C58.8181 65.1236 60.5464 62.4839 61.5371 59.6712C64.6625 58.5126 66.8953 55.5093 66.8953 51.9942C66.8953 48.8569 65.1166 46.1276 62.5123 44.7532V25.3356C66.4109 23.8545 69.0422 20.118 69.0422 15.869C69.0422 10.2813 64.483 5.73536 58.8788 5.73536C58.0492 5.73536 57.2343 5.8336 56.4421 6.02872C54.837 2.41211 51.2157 0 47.147 0C44.1784 0 41.4153 1.2793 39.5104 3.44551C37.6057 1.2793 34.8426 0 31.8741 0C27.7721 0 24.1463 2.43106 22.5561 6.08048C21.7016 5.85118 20.8205 5.73556 19.9213 5.73556C14.3172 5.73556 9.75801 10.2815 9.75801 15.8692C9.75801 20.1182 12.3893 23.8547 16.2879 25.3358V28.3678C16.2879 29.2131 16.9733 29.8985 17.8186 29.8985C18.6639 29.8985 19.3492 29.2131 19.3492 28.3678V25.7448H22.869C23.7143 25.7448 24.3996 25.0594 24.3996 24.2141C24.3996 23.3688 23.7143 22.6834 22.869 22.6834H18.0217C14.9502 21.8379 12.8195 19.0614 12.8195 15.8692C12.8195 11.9694 16.0055 8.7967 19.9215 8.7967C20.553 8.7967 21.1717 8.87873 21.7713 9.04045C21.7323 9.40236 21.7112 9.76701 21.7112 10.1336C21.7112 10.9789 22.3965 11.6643 23.2418 11.6643C24.0871 11.6643 24.7725 10.9789 24.7725 10.1336C24.7725 9.53322 24.8506 8.94142 24.9989 8.3672H24.9977C25.8041 5.24083 28.6247 3.06114 31.8745 3.06114C34.5155 3.06114 36.9235 4.5086 38.1583 6.83888C38.4237 7.33966 38.944 7.65275 39.5108 7.65275C40.0776 7.65275 40.5977 7.33966 40.863 6.83888C42.0983 4.5086 44.5063 3.06114 47.1474 3.06114C50.3774 3.06114 53.2027 5.23185 54.0185 8.33947C54.021 8.34884 54.0259 8.3672 54.0259 8.3672C54.174 8.94025 54.2495 9.53107 54.2495 10.1336C54.2495 10.9789 54.9349 11.6643 55.7802 11.6643C56.6255 11.6643 57.3109 10.9789 57.3109 10.1336C57.3109 9.74767 57.287 9.36545 57.2441 8.98654C57.7759 8.86173 58.3222 8.7965 58.879 8.7965C62.7949 8.7965 65.981 11.9692 65.981 15.869C65.981 19.0612 63.8502 21.8377 60.7789 22.6832H52.4616C51.6163 22.6832 50.931 23.3686 50.931 24.2139C50.931 25.0592 51.6163 25.7446 52.4616 25.7446H59.4513V34.4899H49.5024V31.1665C49.5024 30.3211 48.8171 29.6358 47.9718 29.6358C47.1265 29.6358 46.4411 30.3211 46.4411 31.1665V34.4899H40.9309V31.1665C40.9309 30.3211 40.2456 29.6358 39.4003 29.6358C38.555 29.6358 37.8696 30.3211 37.8696 31.1665V34.4899H32.3596V31.1665C32.3596 30.3211 31.6743 29.6358 30.829 29.6358C29.9836 29.6358 29.2983 30.3211 29.2983 31.1665V34.4899H19.3492V33.8776C19.3492 33.0323 18.6639 32.3469 17.8186 32.3469C16.9733 32.3469 16.2879 33.0323 16.2879 33.8776V41.4286V41.5464V44.7528C13.6838 46.1272 11.9049 48.8567 11.9049 51.9938C11.9049 55.5091 14.1377 58.5122 17.2631 59.6708C18.2537 62.4835 19.9821 65.1228 22.3678 67.4282C21.0834 68.5773 20.2721 70.2417 20.2721 72.0939C20.2721 72.6408 20.344 73.1712 20.4764 73.6773H16.2858C8.19452 73.6773 1.61169 80.24 1.61169 88.3064V96.2107C1.61169 98.3 3.31502 99.9998 5.40838 99.9998H73.3914C75.4849 99.9998 77.1881 98.3 77.1881 96.2107V94.0816C77.1881 93.2365 76.5029 92.5511 75.6576 92.5511ZM62.5121 54.0315V48.5731C63.332 49.4815 63.8339 50.6794 63.8339 51.9942C63.8339 53.3429 63.3062 54.5694 62.4482 55.4854C62.4902 55.0032 62.5121 54.5183 62.5121 54.0315ZM14.9662 51.9942C14.9662 50.6798 15.4678 49.4815 16.2881 48.5731V54.0315C16.2881 54.5183 16.31 55.0032 16.352 55.4854C15.4938 54.5692 14.9662 53.3427 14.9662 51.9942ZM50.4083 82.6986C50.3071 82.7996 50.0821 82.8574 49.7913 82.8574C48.5591 82.8574 46.3278 81.8726 44.1204 79.673C42.7933 78.3503 41.9104 77.0216 41.4149 75.9046L44.4679 78.9468C44.7665 79.2443 45.1573 79.3933 45.5483 79.3933C45.9407 79.3933 46.3335 79.2431 46.6327 78.9431C47.2294 78.3443 47.2276 77.3751 46.6288 76.7786L43.7888 73.9484C43.8417 73.9388 43.8944 73.9302 43.9474 73.9201C44.9899 74.4353 46.1833 75.2628 47.372 76.4476C49.5778 78.646 50.5652 80.8662 50.5652 82.0916C50.5652 82.3779 50.5081 82.5992 50.4083 82.6986ZM52.238 75.3062H50.4868C50.1862 74.9572 49.8687 74.6138 49.5327 74.279C48.9978 73.746 48.4411 73.2577 47.8745 72.8169C50.0612 71.9993 52.1571 70.8626 54.0595 69.4443C54.9083 70.0236 55.4667 70.9949 55.4667 72.0939C55.4665 73.8654 54.0181 75.3062 52.238 75.3062ZM59.4507 47.5511H58.9292C54.9904 47.5511 51.3599 46.2268 48.4513 44.0069C48.7282 43.7052 48.996 43.395 49.2546 43.0768H59.4507V47.5511ZM19.349 37.551H59.4505V40.0157H19.349V37.551ZM19.3492 43.077H45.044C41.9753 45.8542 37.9055 47.5511 33.4426 47.5511H27.909C24.8907 47.5511 21.9487 46.7731 19.3494 45.2938V43.077H19.3492ZM19.349 54.0315V48.7321C22.017 49.9669 24.9313 50.6124 27.9086 50.6124H33.4423C38.2636 50.6124 42.6974 48.9308 46.1872 46.1264C49.6769 48.9302 54.1087 50.6124 58.9292 50.6124H59.4507V54.0315C59.4507 58.4622 57.2722 62.7571 53.3163 66.1245C49.4892 69.3825 44.5784 71.2513 39.8427 71.2513H38.9571C34.2214 71.2513 29.3106 69.3827 25.4834 66.1245C21.5276 62.7571 19.349 58.4622 19.349 54.0315ZM23.3332 72.0943C23.3332 70.995 23.8916 70.0238 24.7405 69.4447C26.6424 70.863 28.7385 71.9997 30.9252 72.8173C30.3586 73.2581 29.802 73.746 29.267 74.2794C28.9311 74.6142 28.6135 74.9577 28.3129 75.3066H26.5618V75.3064C24.7815 75.3062 23.3332 73.8654 23.3332 72.0943ZM31.4278 76.4474C32.6165 75.2624 33.8096 74.4351 34.8522 73.9199C34.9051 73.9298 34.9579 73.9386 35.011 73.9482L32.171 76.7785C31.5721 77.3751 31.5706 78.3443 32.167 78.9429C32.4661 79.2431 32.8587 79.3931 33.2514 79.3931C33.6423 79.3931 34.0333 79.2443 34.3319 78.9466L37.3848 75.9042C36.8895 77.0212 36.0065 78.3501 34.6794 79.6726C32.4719 81.8726 30.2409 82.8574 29.0084 82.8574C28.7176 82.8574 28.4928 82.7996 28.3915 82.6988C28.2917 82.5994 28.2342 82.3779 28.2342 82.0914C28.2346 80.8662 29.2219 78.6456 31.4278 76.4474ZM38.3794 96.939C38.3794 96.3763 38.8372 95.9187 39.3997 95.9187C39.9624 95.9187 40.42 96.3765 40.42 96.939H38.3794ZM45.0124 96.939H43.4815C43.4815 94.6884 41.6505 92.8574 39.3999 92.8574C37.1493 92.8574 35.3182 94.6884 35.3182 96.939H5.40838C5.00291 96.939 4.67284 96.6125 4.67284 96.2113V88.307C4.67284 81.9285 9.88222 76.739 16.2858 76.739H22.341C23.3809 77.6796 24.7354 78.28 26.227 78.3585C25.5498 79.6769 25.1733 80.9667 25.1733 82.0914C25.1733 83.2179 25.5389 84.1777 26.2309 84.8671C26.9213 85.555 27.8817 85.9185 29.0086 85.9185C31.3159 85.9185 34.3169 84.3562 36.8405 81.8412C37.8665 80.8187 38.7309 79.7173 39.4001 78.6156C40.069 79.7171 40.9337 80.8187 41.9597 81.8412C42.929 82.807 43.9686 83.6308 45.0124 84.2812V96.939Z" fill="#FF9C1D" stroke="#FF9C1D" stroke-width="1.5625"/>
</svg>
