<svg width="100" height="100" viewBox="0 0 100 100" fill="none" xmlns="http://www.w3.org/2000/svg">
<path d="M92.1875 65.625H83.7781C83.6375 64.8781 83.4656 64.1469 83.2781 63.4188L98.275 55.9219C98.9824 55.5317 99.5115 54.883 99.7513 54.1115C99.9912 53.34 99.9233 52.5057 99.5618 51.7832C99.2004 51.0607 98.5734 50.506 97.8122 50.2354C97.051 49.9647 96.2146 49.9991 95.4781 50.3313L81.1719 57.4813C75.7156 45.7063 63.8125 37.5 50 37.5C33.1813 37.5 19.1719 49.65 16.2219 65.625H7.8125C5.74126 65.6275 3.75556 66.4514 2.29097 67.916C0.826378 69.3806 0.00248103 71.3663 0 73.4375C0 74.9688 0.5625 76.4469 1.57812 77.5906L12.5 89.8781V92.1875C12.5 96.4969 16.0063 100 20.3125 100H79.6875C83.9969 100 87.5 96.4969 87.5 92.1875V89.8781L98.4187 77.5906C99.4375 76.4469 100 74.9688 100 73.4375C100 69.1281 96.4969 65.625 92.1875 65.625ZM80.6219 65.625H78.8656L80.4219 64.8438C80.4813 65.1063 80.5656 65.3594 80.6219 65.625ZM50 40.625C62.5906 40.625 73.4375 48.125 78.3813 58.8781L75.5969 60.2688C71.1719 50.5344 61.3906 43.75 50 43.75C36.6188 43.75 25.4406 53.1031 22.5938 65.625H19.3813C22.2844 51.3781 34.9094 40.625 50 40.625ZM64.3 65.625C61.8844 60.1156 56.3906 56.25 50 56.25C43.6094 56.25 38.1187 60.1156 35.7 65.625H32.3438C34.925 58.3563 41.8531 53.125 50 53.125C53.6619 53.1291 57.2427 54.2044 60.3011 56.2183C63.3595 58.2323 65.762 61.097 67.2125 64.4594L64.8875 65.625H64.3ZM50 62.5C47.2406 62.5 44.7812 63.7219 43.0625 65.625H39.2375C41.4062 61.9094 45.3937 59.375 50 59.375C54.6031 59.375 58.5938 61.9094 60.7594 65.625H56.9313C56.0611 64.6454 54.9939 63.8606 53.7994 63.3221C52.605 62.7836 51.3102 62.5034 50 62.5ZM50 50C40.1094 50 31.7437 56.6 29.0469 65.625H25.8219C28.6094 54.8625 38.375 46.875 50 46.875C60.1437 46.875 68.8844 52.9625 72.7969 61.6688L70.0062 63.0625C66.6063 55.3844 58.9219 50 50 50ZM81.25 87.5V92.1875C81.25 92.6019 81.0854 92.9993 80.7924 93.2924C80.4993 93.5854 80.1019 93.75 79.6875 93.75H20.3125C19.8981 93.75 19.5007 93.5854 19.2076 93.2924C18.9146 92.9993 18.75 92.6019 18.75 92.1875V87.5L6.25 73.4375C6.25 73.0231 6.41462 72.6257 6.70765 72.3326C7.00067 72.0396 7.3981 71.875 7.8125 71.875H92.1875C92.6019 71.875 92.9993 72.0396 93.2924 72.3326C93.5854 72.6257 93.75 73.0231 93.75 73.4375L81.25 87.5ZM24.9281 36.6L24.9531 36.6563H24.9594C25.2188 37.1563 25.7375 37.5 26.3438 37.5C26.5826 37.4985 26.8179 37.4425 27.0319 37.3364C27.2459 37.2303 27.4329 37.0769 27.5787 36.8877C27.7245 36.6985 27.8253 36.4786 27.8734 36.2446C27.9215 36.0107 27.9156 35.7689 27.8562 35.5375C27.8625 35.5171 27.8625 35.4954 27.8562 35.475C26.6844 32.7188 27.7969 29.6938 29.1656 26.4375C30.6438 22.9188 32.2281 19.0125 30.4844 15.0406C30.3236 14.6837 30.0322 14.4019 29.6701 14.2531C29.308 14.1044 28.9027 14.0999 28.5374 14.2408C28.1721 14.3816 27.8746 14.657 27.7061 15.0103C27.5376 15.3637 27.5108 15.7681 27.6313 16.1406L27.6406 16.1688L27.6563 16.2063C28.9188 19.0469 27.6969 21.9594 26.3188 25.2469C24.8625 28.7125 23.25 32.5531 24.8719 36.4688L24.9281 36.6ZM62.9812 36.1438C62.9937 36.1625 63 36.1813 63.0063 36.2H63.0125C63.1908 36.5398 63.4877 36.8024 63.8468 36.9377C64.206 37.073 64.6023 37.0717 64.9605 36.9341C65.3187 36.7964 65.6139 36.532 65.79 36.191C65.9661 35.85 66.0108 35.4562 65.9156 35.0844C65.9192 35.0741 65.9204 35.0632 65.9194 35.0524C65.9183 35.0417 65.9149 35.0312 65.9094 35.0219C64.7438 32.2656 65.8531 29.2406 67.2219 25.9844C68.7 22.4656 70.2844 18.5594 68.5406 14.5875C68.3774 14.2372 68.0877 13.9617 67.7298 13.816C67.3718 13.6704 66.972 13.6655 66.6106 13.8023C66.2492 13.9391 65.9529 14.2075 65.7811 14.5537C65.6093 14.8999 65.5748 15.2982 65.6844 15.6688V15.6875L65.6969 15.7156C65.7038 15.727 65.7081 15.7398 65.7094 15.7531C66.9719 18.5938 65.7531 21.5063 64.3719 24.7938C62.9188 28.2594 61.3094 32.1031 62.9313 36.0188L62.9812 36.1438ZM46.9344 22.5375L46.9594 22.5938H46.9656C47.1279 22.9042 47.3895 23.1512 47.7087 23.2953C48.0279 23.4395 48.3863 23.4725 48.7264 23.389C49.0666 23.3054 49.3689 23.1103 49.585 22.8347C49.8012 22.5591 49.9187 22.219 49.9188 21.8688C49.9176 21.7366 49.8987 21.6052 49.8625 21.4781C49.8688 21.4578 49.8688 21.436 49.8625 21.4156C48.6906 18.6594 49.8031 15.6344 51.1719 12.3781C52.65 8.85938 54.2344 4.95313 52.4906 0.981255C52.3333 0.619336 52.0424 0.332119 51.6784 0.179511C51.3145 0.0269036 50.9057 0.0206882 50.5373 0.162162C50.1689 0.303635 49.8694 0.581873 49.7012 0.938843C49.5329 1.29581 49.509 1.70395 49.6344 2.07813L49.6437 2.10626L49.6562 2.14375C50.9188 4.98438 49.6969 7.89688 48.3187 11.1844C46.8625 14.65 45.25 18.4938 46.875 22.4094L46.9344 22.5375Z" fill="#FF9C1D"/>
</svg>
