<svg width="100" height="100" viewBox="0 0 100 100" fill="none" xmlns="http://www.w3.org/2000/svg">
<path d="M9.72656 59.6096V98.2408C9.72656 99.2108 10.5615 100 11.5924 100H55.5663V65.0199H76.223V100H88.511C89.0059 100 89.4805 99.8147 89.8304 99.4847C90.1803 99.1548 90.3769 98.7073 90.3769 98.2408V59.6096L50.0752 21.7737L9.72656 59.6096ZM42.52 81.317H23.8804V65.0219H42.52V81.317Z" fill="#FF9C1D"/>
<path d="M98.5454 45.7184L50.0539 0L27.1777 21.5668V12.0758C27.1777 11.0105 26.7288 9.98887 25.9299 9.23562C25.131 8.48237 24.0475 8.0592 22.9177 8.0592C21.7878 8.0592 20.7043 8.48237 19.9054 9.23562C19.1065 9.98887 18.6577 11.0105 18.6577 12.0758V29.5999L1.56016 45.7184C0.815241 46.4205 0.307923 47.3152 0.102375 48.2892C-0.103174 49.2633 0.00228159 50.2729 0.4054 51.1904C0.808518 52.108 1.49119 52.8922 2.36706 53.4438C3.24294 53.9955 4.27267 54.2899 5.326 54.2897C6.68919 54.2897 8.05027 53.7996 9.09184 52.8216L50.056 14.2025L91.0159 52.8196C92.024 53.717 93.3635 54.2084 94.7498 54.1895C96.1361 54.1707 97.46 53.6429 98.4403 52.7185C99.4205 51.794 99.9798 50.5456 99.9995 49.2385C100.019 47.9314 99.4975 46.6686 98.5454 45.7184Z" fill="#FF9C1D"/>
</svg>
