<svg width="100" height="100" viewBox="0 0 100 100" fill="none" xmlns="http://www.w3.org/2000/svg">
<path d="M20.4187 57.4766V87.5328C20.4187 88.2875 21.0312 88.9016 21.7875 88.9016H54.0453V61.6859H69.1984V88.9016H78.2124C78.5755 88.9016 78.9236 88.7574 79.1803 88.5007C79.437 88.244 79.5812 87.8958 79.5812 87.5328V57.4766L50.0171 28.0391L20.4187 57.4766ZM44.475 74.3656H30.8015V61.6875H44.475V74.3656Z" fill="#FF9C1D"/>
<path d="M85.5735 46.6687L50.0016 11.0984L33.2204 27.8781V20.4937C33.2204 19.6649 32.8911 18.8701 32.3051 18.284C31.719 17.698 30.9242 17.3687 30.0954 17.3687C29.2666 17.3687 28.4717 17.698 27.8857 18.284C27.2996 18.8701 26.9704 19.6649 26.9704 20.4937V34.1281L14.4282 46.6687C13.8817 47.215 13.5096 47.9111 13.3588 48.669C13.208 49.4268 13.2854 50.2123 13.5811 50.9262C13.8768 51.6401 14.3776 52.2502 15.0201 52.6794C15.6626 53.1086 16.418 53.3376 17.1907 53.3375C18.1907 53.3375 19.1891 52.9562 19.9532 52.1953L50.0032 22.1484L80.05 52.1937C80.7896 52.8919 81.7722 53.2743 82.7892 53.2596C83.8061 53.2449 84.7773 52.8343 85.4963 52.115C86.2154 51.3958 86.6257 50.4245 86.6401 49.4076C86.6545 48.3906 86.2719 47.4081 85.5735 46.6687Z" fill="#FF9C1D"/>
</svg>
